<?xml version="1.0" encoding="UTF-8" standalone="no"?>
<!-- Created with Inkscape (http://www.inkscape.org/) -->

<svg
   width="210mm"
   height="297mm"
   viewBox="0 0 210 297"
   version="1.1"
   id="svg5"
   inkscape:version="1.1 (c68e22c387, 2021-05-23)"
   sodipodi:docname="blackredcinemalogo.svg"
   xmlns:inkscape="http://www.inkscape.org/namespaces/inkscape"
   xmlns:sodipodi="http://sodipodi.sourceforge.net/DTD/sodipodi-0.dtd"
   xmlns="http://www.w3.org/2000/svg"
   xmlns:svg="http://www.w3.org/2000/svg">
  <sodipodi:namedview
     id="namedview7"
     pagecolor="#ffffff"
     bordercolor="#666666"
     borderopacity="1.0"
     inkscape:pageshadow="2"
     inkscape:pageopacity="0.0"
     inkscape:pagecheckerboard="0"
     inkscape:document-units="mm"
     showgrid="false"
     inkscape:zoom="2.1997092"
     inkscape:cx="238.44061"
     inkscape:cy="542.57172"
     inkscape:window-width="2560"
     inkscape:window-height="1377"
     inkscape:window-x="-8"
     inkscape:window-y="417"
     inkscape:window-maximized="1"
     inkscape:current-layer="layer1" />
  <defs
     id="defs2" />
  <g
     inkscape:label="Taso 1"
     inkscape:groupmode="layer"
     id="layer1">
    <path
       style="fill:#aa0000;stroke:#000000;stroke-width:0.264583px;stroke-linecap:butt;stroke-linejoin:miter;stroke-opacity:1"
       d="m 10.048171,90.655179 -0.6804121,65.319591 7.1443291,-1.70103 10.886598,-1.02062 6.463917,-3.40206 0.340207,-7.82474 -10.206186,-4.08248 -10.886598,-2.72165 -2.721648,-8.50515 19.391752,-9.52577 4.42268,-6.46392 -5.4433,-8.16495 -9.185566,-6.123711 z"
       id="path10388" />
    <path
       style="fill:none;stroke:#000000;stroke-width:0.264583px;stroke-linecap:butt;stroke-linejoin:miter;stroke-opacity:1"
       d="m 36.229884,98.064252 c 1.02062,1.02062 -0.340206,57.835048 -0.340206,57.835048 l 5.783506,-32.65979 14.969071,31.63917 -9.525772,-32.65979 5.103093,-2.72165 5.103092,-2.38144 1.70103,-4.76289 -1.70103,-4.76289 -7.144332,-4.76288 -5.783503,-1.36083 -7.824742,-0.68041"
       id="path10641" />
    <path
       style="fill:#aa0000;stroke-width:0.340207"
       d="m 36.680581,125.83406 c 0.09775,-13.47216 0.21285,-24.53792 0.255768,-24.59058 0.205176,-0.25173 7.98219,0.69459 10.343819,1.25865 2.197248,0.5248 3.304537,1.06233 6.225881,3.02233 3.378914,2.267 3.589631,2.47893 4.29333,4.3178 0.91608,2.39387 0.916517,2.71231 0.007,5.08904 l -0.733022,1.91551 -4.921237,2.44599 c -2.70668,1.34529 -4.994868,2.63787 -5.084863,2.8724 -0.09,0.23452 1.556133,6.32809 3.658063,13.54126 2.101929,7.21316 3.75938,13.17715 3.683227,13.25331 -0.07615,0.0762 -2.960343,-5.84146 -6.409303,-13.15025 -4.612532,-9.77453 -6.336221,-13.12051 -6.518069,-12.6527 -0.135972,0.3498 -1.259287,6.45353 -2.496254,13.56384 -1.236966,7.11031 -2.301462,13.08093 -2.365549,13.26804 -0.06409,0.18712 -0.03654,-10.68247 0.06122,-24.15464 z"
       id="path10680" />
    <path
       style="fill:#aa0000;stroke-width:0.0601406"
       d="m 54.577527,118.0783 2.49583,-1.23149 0.563404,-1.48536 c 0.735261,-1.93846 0.870058,-2.45432 0.828148,-3.1693 -0.03656,-0.62372 -0.200924,-1.22481 -0.640702,-2.34309 -0.732213,-1.86189 -0.997349,-2.14245 -3.860368,-4.08487 -4.156742,-2.82015 -5.259171,-3.23913 -10.452169,-3.97234 -2.721808,-0.3843 -5.097899,-0.63502 -6.02071,-0.63531 l -0.577993,-1.8e-4 -0.03793,0.31574 c -0.02085,0.17366 -0.04218,1.20882 -0.04739,2.30037 -0.0084,1.77125 -0.01445,1.88441 -0.0558,1.05246 -0.02548,-0.5127 -0.05582,-1.58846 -0.0674,-2.39058 -0.02064,-1.43 -0.01868,-1.4584 0.100386,-1.4581 0.06679,1.8e-4 1.799362,0.14754 3.850156,0.32747 l 3.728712,0.32714 2.854071,0.67309 2.854071,0.67309 3.550893,2.36782 3.550896,2.36782 0.826871,2.32995 0.826868,2.32994 -0.828067,2.30882 -0.828066,2.30883 -2.492952,1.16429 c -1.371124,0.64036 -2.520773,1.16226 -2.554774,1.15978 -0.03401,-0.002 1.061299,-0.55867 2.434008,-1.23599 z"
       id="path10790" />
    <path
       style="fill:#aa0000;stroke-width:0.0601406"
       d="m 49.711908,139.82379 c -3.329672,-7.03786 -6.052536,-12.82272 -6.050814,-12.85523 0.0074,-0.13883 1.444008,2.81947 4.644281,9.56337 4.511461,9.50695 6.065195,12.65558 6.106285,12.37435 0.03636,-0.24886 -1.062292,-4.22359 -3.586613,-12.97576 -1.712801,-5.93852 -2.310854,-8.07352 -2.28406,-8.1539 0.0109,-0.0327 1.6511,5.53352 3.644895,12.36937 1.993794,6.83585 3.61493,12.43897 3.602526,12.45137 -0.01241,0.0124 -2.74683,-5.7357 -6.0765,-12.77357 z"
       id="path10868" />
    <path
       style="fill:#aa0000;stroke-width:0.0601406"
       d="m 36.147853,153.28106 c -0.0036,-0.18192 0.03296,-2.11694 0.08117,-4.30005 0.09643,-4.36627 0.255498,-12.4867 0.324557,-16.56871 0.02434,-1.43886 0.03271,1.94404 0.0186,7.51757 -0.0177,6.99378 -0.0063,10.11504 0.03668,10.07353 0.07818,-0.0754 0.643877,-3.19134 2.358393,-12.99035 1.478939,-8.45262 2.498881,-13.9617 2.519606,-13.60933 0.0049,0.0841 -5.238795,29.82298 -5.310561,30.1179 -0.01206,0.0496 -0.02487,-0.0586 -0.02844,-0.24056 z"
       id="path10907" />
    <path
       style="fill:none;stroke:#000000;stroke-width:0.264583px;stroke-linecap:butt;stroke-linejoin:miter;stroke-opacity:1"
       d="m 83.354765,122.38597 -6.13433,-6.9763 -9.381924,-2.04478 -7.096583,5.11195 -3.60843,8.29939 -0.721688,9.68263 3.48815,10.04346 4.51054,4.63082 11.125995,3.78886 8.11897,1.86435 3.66858,-4.02941 -3.06717,0.6014 c 0,0 -6.01405,0 -6.55532,-0.12028 -0.54126,-0.12028 -7.09658,-2.58604 -7.09658,-2.58604 0,0 -4.690961,-3.06717 -5.292367,-3.54829 -0.601404,-0.48113 -2.646183,-2.88675 -3.007027,-3.36787 -0.360841,-0.48113 -1.443371,-3.78885 -1.443371,-3.78885 l -0.661545,-4.39026 c 0,0 -1.323092,-3.78886 0,-4.57068 1.323091,-0.78183 2.886744,-5.89377 2.886744,-5.89377 0,0 2.285341,-2.88675 2.525903,-2.88675 0.240562,0 3.848992,0.12028 4.570683,0.84197 0.72168,0.72168 4.93152,2.04478 4.93152,2.04478 0,0 2.64618,1.20281 3.36787,1.68393 0.72168,0.48112 5.23222,1.14267 5.59307,1.26295 0.36084,0.12028 3.48815,0.24056 3.72871,0 0.24056,-0.24056 0.66155,-2.46576 0.66155,-2.46576 0,0 -0.78183,-1.74408 -1.98464,-2.10492 -1.20281,-0.36084 -3.54829,-1.20281 -3.54829,-1.20281"
       id="path10979" />
    <path
       style="fill:#aa0000;stroke-width:0.0601406"
       d="m 79.535845,155.67312 -3.99935,-0.92353 -5.50285,-1.87112 -5.502862,-1.87113 -1.05246,-1.07823 c -0.578853,-0.59302 -1.590201,-1.63359 -2.247442,-2.31237 l -1.194983,-1.23416 -1.729719,-4.9789 -1.729719,-4.9789 0.358699,-4.79889 0.358698,-4.7989 1.791486,-4.11902 1.791486,-4.11902 3.508134,-2.52563 c 1.99182,-1.43398 3.548327,-2.51518 3.601122,-2.50146 0.05114,0.0133 2.12785,0.46721 4.61489,1.00873 l 4.5219,0.98458 2.87539,3.27313 c 2.36894,2.69664 2.87399,3.30194 2.86747,3.43668 -0.008,0.16207 0.009,0.16933 1.91066,0.81168 2.3948,0.80903 2.54193,0.90254 3.2647,2.07483 l 0.26208,0.42509 -0.14372,0.675 c -0.21297,1.00017 -0.42619,1.6542 -0.5505,1.68863 -0.26992,0.0747 -1.39976,0.0971 -2.26955,0.0449 -0.95921,-0.0576 -2.14805,-0.25277 -4.65523,-0.7644 -1.4127,-0.28828 -1.71569,-0.3887 -2.5917,-0.85897 -1.42133,-0.76301 -2.84364,-1.40179 -3.96928,-1.78267 -1.91101,-0.64662 -3.34729,-1.2607 -3.76433,-1.60944 -0.41926,-0.35059 -1.110429,-0.56895 -2.309862,-0.72976 -1.04621,-0.14026 -2.453458,-0.22555 -2.582458,-0.15651 -0.151765,0.0812 -0.868339,0.88399 -1.762104,1.97406 l -0.75406,0.91967 -0.364225,1.06763 c -0.876567,2.5694 -1.760956,4.28325 -2.474968,4.79622 -0.787789,0.56597 -0.867527,1.96462 -0.239509,4.20119 0.106929,0.38081 0.315127,1.53106 0.512355,2.83068 0.326202,2.14944 0.338815,2.2081 0.694521,3.22927 0.199258,0.57203 0.496027,1.37988 0.659492,1.79521 0.330378,0.83943 0.504344,1.08505 1.898365,2.68018 1.307263,1.49585 1.483473,1.63937 4.332922,3.52908 l 2.575501,1.70804 2.31541,0.85865 c 4.37528,1.62254 4.59476,1.69585 5.23223,1.74763 0.31423,0.0255 1.80593,0.0639 3.31488,0.0852 l 2.74355,0.0388 1.27208,-0.24823 c 0.69964,-0.13653 1.29466,-0.2394 1.32226,-0.2286 0.049,0.0192 -3.08239,3.49763 -3.16717,3.51817 -0.0236,0.006 -1.84259,-0.4052 -4.04223,-0.91313 z"
       id="path11018" />
    <path
       style="fill:#280b0b;stroke:#000000;stroke-width:0.264583px;stroke-linecap:butt;stroke-linejoin:miter;stroke-opacity:1"
       d="m 15.035131,98.149339 7.156722,4.751101 4.269977,3.06716 1.563655,4.63083 -1.02239,3.54829 -3.007026,1.92449 c 0,0 -4.811242,1.74408 -5.65321,1.56366 -0.841967,-0.18043 -4.029415,-0.96225 -4.029415,-0.96225 l -1.323091,-3.66857 -0.420984,-4.39026 0.120281,-4.08956 0.841967,-4.02941 z"
       id="path11090" />
    <path
       style="fill:#280b0b;stroke-width:0.0601406"
       d="m 17.561033,117.29862 c -0.463082,-0.11302 -1.356737,-0.32957 -1.985899,-0.48122 l -1.143932,-0.27574 -0.64346,-1.78909 -0.643461,-1.78908 -0.211152,-2.19707 -0.211153,-2.19707 0.06278,-2.00752 0.06278,-2.00753 0.417646,-2.00469 0.417645,-2.0047 0.64084,-1.002327 c 0.352461,-0.551283 0.673102,-1.038037 0.712534,-1.081672 0.05796,-0.06414 0.779158,0.391779 3.764027,2.379479 2.030783,1.35234 4.555115,3.08096 5.609627,3.84136 l 1.917296,1.38255 0.767602,2.2668 0.767602,2.2668 -0.494889,1.72203 -0.494889,1.72202 -1.470265,0.944 c -1.433753,0.92056 -1.494166,0.95233 -2.432687,1.27932 -1.743627,0.60749 -3.609078,1.13236 -4.295989,1.20874 -0.18819,0.0209 -0.527116,-0.0325 -1.112599,-0.17539 z"
       id="path11166" />
    <path
       style="fill:none;stroke:#000000;stroke-width:0.264583px;stroke-linecap:butt;stroke-linejoin:miter;stroke-opacity:1"
       d="m 14.313444,139.46588 7.637847,1.44337 c 0,0 6.134334,1.62379 6.374895,1.68393 0.240562,0.0602 1.683936,2.16506 1.683936,2.16506 l -1.202812,3.06717 c 0,0 -0.902107,2.8266 -1.864355,2.88675 -0.962249,0.0601 -5.472788,-0.24057 -5.472788,-0.24057 l -4.630821,-1.14267 c 0,0 -2.826604,-1.80421 -2.886745,-3.1273 -0.06014,-1.3231 -0.420984,-5.83364 -0.420984,-5.83364 z"
       id="path11238" />
    <path
       style="fill:#280b0b;stroke-width:0.0601406"
       d="m 24.417052,150.48795 c -0.23154,-0.0111 -1.002843,-0.0577 -1.714004,-0.10347 l -1.293022,-0.0832 -2.195129,-0.54675 c -1.207321,-0.30071 -2.251139,-0.57081 -2.319596,-0.60021 -0.265843,-0.11418 -1.383447,-1.00798 -1.850421,-1.47987 -0.26998,-0.27283 -0.582191,-0.64825 -0.693801,-0.83428 -0.189399,-0.31569 -0.20665,-0.38935 -0.258759,-1.10482 -0.03071,-0.42162 -0.132175,-1.78145 -0.225486,-3.02185 l -0.169655,-2.25527 0.13955,-0.18042 c 0.07675,-0.0992 0.228944,-0.28363 0.338203,-0.40979 l 0.198653,-0.22937 3.818923,0.72468 c 3.645036,0.69169 3.962153,0.76262 6.964529,1.55776 l 3.145604,0.83307 0.192196,0.22939 c 0.322567,0.38502 1.303338,1.74091 1.304086,1.80288 7.94e-4,0.066 -1.213897,3.22024 -1.540867,4.00127 -0.270184,0.64539 -0.683047,1.31746 -0.957211,1.55818 l -0.211724,0.18589 -1.125543,-0.0118 c -0.619048,-0.006 -1.314984,-0.0209 -1.546526,-0.032 z"
       id="path11277" />
    <path
       style="fill:none;stroke:#000000;stroke-width:0.264583px;stroke-linecap:butt;stroke-linejoin:miter;stroke-opacity:1"
       d="m 42.485219,105.1085 9.381922,3.36787 c 0,0 2.104919,3.849 1.864357,4.33012 -0.240562,0.48113 -1.323091,4.02942 -2.225199,4.81124 -0.90211,0.78183 -4.089556,2.16506 -4.931524,2.28534 -0.841967,0.12028 -5.593069,-2.10491 -5.593069,-2.10491 l -0.841968,-5.71336 1.503514,-4.33011 0.721685,-2.28534 z"
       id="path11349" />
    <path
       style="fill:#280b0b;stroke-width:0.0601406"
       d="m 45.147155,119.40123 c -0.803288,-0.27516 -2.530356,-0.98651 -3.64999,-1.50337 -0.4781,-0.22071 -0.525754,-0.25833 -0.558711,-0.44113 -0.01982,-0.10991 -0.207637,-1.36356 -0.417374,-2.78588 l -0.381342,-2.58605 0.707478,-2.04477 c 0.389114,-1.12463 0.902099,-2.64957 1.139967,-3.38876 0.381347,-1.18505 0.445892,-1.34047 0.545836,-1.31433 0.06234,0.0163 2.128832,0.75331 4.592203,1.63779 l 4.478859,1.60815 0.569995,1.11949 c 0.619926,1.21755 1.082439,2.2618 1.188698,2.68379 0.06389,0.25372 0.05064,0.31399 -0.247499,1.12603 -0.745807,2.03134 -1.307896,3.27226 -1.693386,3.73848 -0.363815,0.44001 -1.502669,1.09187 -3.087285,1.76711 -1.11728,0.47609 -1.728155,0.67512 -2.066655,0.67333 -0.172586,-8e-4 -0.599639,-0.11137 -1.120794,-0.28988 z"
       id="path11388" />
    <path
       style="fill:none;stroke:#000000;stroke-width:0.264583px;stroke-linecap:butt;stroke-linejoin:miter;stroke-opacity:1"
       d="m 86.361795,125.393 -3.60843,-1.9245 -1.98464,-1.44337 -2.58604,-2.40562 -2.64619,-1.80422 -3.00702,-1.98463 -4.630825,-0.12029 c 0,0 -3.307728,1.80422 -3.728712,2.34548 -0.420983,0.54127 -2.646182,2.88675 -2.646182,2.88675 0,0 -1.262952,2.76646 -1.262952,3.00703 0,0.24056 -1.202811,3.18744 -1.202811,3.42801 0,0.24056 -0.661546,3.18744 -0.721686,3.78885 -0.06014,0.6014 -0.420984,4.7511 -0.420984,4.7511 l 0.120283,2.04478 0.721685,3.18745 1.323091,3.24758 2.706325,3.72872 2.826605,1.98464 2.044777,0.96224 2.525906,1.14267 3.54829,1.32309 1.80421,1.21083 6.79588,0.59339 1.81853,-1.79808 -6.93047,0.41485 -4.69096,-1.80422 -4.630825,-1.98464 -4.751101,-4.02941 -1.804215,-2.94689 -1.984637,-3.66857 0.300702,-2.34548 -0.481124,-2.5259 0.180422,-4.1497 0.781825,-2.70632 2.809859,-2.82154 1.099275,-3.13237 2.706325,-1.56366 c 0,0 3.488154,0.60141 4.690964,0.90211 1.20281,0.30071 2.70632,0.78183 3.60843,1.38323 0.90211,0.60141 3.24759,1.9245 3.24759,1.9245 0,0 2.16506,0.90211 2.46576,1.02239 0.3007,0.12028 4.51054,0.66154 4.51054,0.66154 z"
       id="path11596" />
    <path
       style="fill:#280b0b;stroke-width:0.0601406"
       d="m 78.693875,154.8692 -3.09723,-0.27798 -0.90211,-0.60503 c -0.90144,-0.60457 -0.90337,-0.60549 -2.58604,-1.22713 -1.6324,-0.60306 -3.705578,-1.49716 -5.623145,-2.42511 -0.76082,-0.36818 -1.17828,-0.62639 -2.27094,-1.40464 l -1.338763,-0.95354 -1.32466,-1.8272 -1.32466,-1.82718 -0.656506,-1.60907 c -0.636209,-1.55931 -0.667602,-1.65807 -1.015399,-3.19454 -0.531037,-2.34595 -0.550034,-2.76238 -0.271243,-5.94567 0.202502,-2.3122 0.232968,-2.53574 0.600885,-4.40904 0.361084,-1.83852 0.416671,-2.05219 0.813548,-3.12731 0.234292,-0.63468 0.539377,-1.49225 0.677969,-1.90571 0.138591,-0.41347 0.479557,-1.27209 0.757703,-1.90803 l 0.505719,-1.15628 0.718302,-0.76822 c 0.395065,-0.42252 1.039542,-1.12404 1.432173,-1.55892 0.812385,-0.89981 1.15914,-1.15483 3.031914,-2.22978 l 1.107082,-0.63546 2.270431,0.0575 2.27043,0.0575 1.17274,0.76976 c 0.64501,0.42336 1.90501,1.26707 2.80001,1.87492 1.5215,1.03334 1.70913,1.18154 2.88674,2.28014 1.81041,1.68894 2.87419,2.45089 4.98819,3.57282 0.89309,0.47398 1.64438,0.88036 1.66955,0.90308 0.0252,0.0227 -0.13355,0.17029 -0.3527,0.32794 l -0.39846,0.28664 -1.00046,-0.13071 c -0.55025,-0.0719 -1.52252,-0.20865 -2.16059,-0.30391 l -1.16013,-0.17319 -1.26915,-0.52428 c -1.25047,-0.51656 -2.70938,-1.30036 -4.28213,-2.30057 -1.56578,-0.99579 -2.92995,-1.41725 -7.010497,-2.16588 l -1.624145,-0.29797 -1.40662,0.81342 -1.40662,0.81342 -0.550741,1.57391 -0.550743,1.5739 -1.407719,1.41331 -1.407721,1.4133 -0.396414,1.36596 -0.396418,1.36596 -0.09429,2.12219 -0.09428,2.12219 0.239186,1.2471 0.239186,1.2471 -0.149979,1.1953 -0.149979,1.1953 1.025755,1.89121 c 0.564166,1.04017 1.426393,2.54377 1.91606,3.34134 l 0.890304,1.45014 2.375551,2.01671 2.375551,2.01671 2.375553,1.02163 c 1.30655,0.56189 3.43101,1.42621 4.72103,1.92071 l 2.34548,0.89908 2.79653,-0.16885 c 1.5381,-0.0929 2.99736,-0.1829 3.2428,-0.20007 l 0.44626,-0.0312 -0.71595,0.71783 c -0.68698,0.68877 -0.72573,0.71751 -0.95746,0.71013 -0.13282,-0.004 -1.63526,-0.13278 -3.33874,-0.28567 z"
       id="path11635" />
    <path
       style="fill:none;stroke:#000000;stroke-width:0.264583px;stroke-linecap:butt;stroke-linejoin:miter;stroke-opacity:1"
       d="m 7.0965818,84.557578 97.9087782,36.565442 -1.9245,41.61724 -99.9535528,-2.28534 z"
       id="path12207" />
  </g>
</svg>
